# xmcd CD database file
#
# Track frame offsets:
#	150
#	13343
#	29679
#	48371
#	73362
#	88066
#	101001
#	123702
#	138575
#	150636
#	168426
#	182285
#	205268
#
# Disc length: 2987 seconds
#
# Revision: 0
# Processed by: cddbd v1.5.2PL0 Copyright (c) Steve Scherf et al.
# Submitted via: CDex 1.70beta2
#
DISCID=bd0ba90d
DTITLE=Handl - Handl
DYEAR=2011
DGENRE=Country
TTITLE0=Dum je dum
TTITLE1=Ted chci znat
TTITLE2=Do tretice
TTITLE3=I Can Believe
TTITLE4=Oaza usmireni
TTITLE5=Muzicek
TTITLE6=Kdyz se stribro objevi
TTITLE7=Nad sklenkou
TTITLE8=Jezis byval kral
TTITLE9=I've Forgotten You
TTITLE10=Ne festivalu
TTITLE11=Jsem tak trochu sva
TTITLE12=Uspavana
EXTD=YEAR: 2011
EXTT0=
EXTT1=
EXTT2=
EXTT3=
EXTT4=
EXTT5=
EXTT6=
EXTT7=
EXTT8=
EXTT9=
EXTT10=
EXTT11=
EXTT12=
PLAYORDER=
